<svg width="136" height="40" viewBox="0 0 136 40" fill="none" xmlns="http://www.w3.org/2000/svg">
<path d="M26.7158 39.1426C26.6807 38.9961 26.6016 38.917 26.4785 38.9053H26.0127V36.5586H28.3945V38.9053H27.6914V39.1426H30.1699C30.123 38.9961 30.0469 38.917 29.9414 38.9053H29.4756V34.1064H30.1699V33.8691H27.6914V34.1064H28.3945V36.2949H26.0127V34.1064H26.7158V33.8691H24.2285V34.1064H24.9316V38.9053H24.2285V39.1426H26.7158ZM38.9273 33.7812C38.1715 33.7812 37.5299 34.0215 37.0025 34.502C36.4459 35.0117 36.1676 35.6709 36.1676 36.4795C36.1676 37.4111 36.4986 38.1348 37.1607 38.6504C37.6588 39.0371 38.2389 39.2305 38.901 39.2305C39.651 39.2305 40.2867 38.9873 40.8082 38.501C41.359 37.9854 41.6344 37.3232 41.6344 36.5146C41.6344 35.5537 41.2945 34.8213 40.6148 34.3174C40.1344 33.96 39.5719 33.7812 38.9273 33.7812ZM38.9273 38.9756C38.2008 38.9756 37.735 38.5918 37.5299 37.8242C37.4361 37.4668 37.3893 37.0303 37.3893 36.5146C37.3893 34.9502 37.8375 34.127 38.734 34.0449C38.7926 34.0391 38.8482 34.0361 38.901 34.0361C39.6861 34.0361 40.1637 34.5137 40.3336 35.4688C40.3863 35.7617 40.4127 36.0986 40.4127 36.4795C40.4127 37.9209 40.0494 38.7383 39.3229 38.9316C39.1998 38.9609 39.068 38.9756 38.9273 38.9756ZM51.2268 39.1426C51.1799 38.9961 51.1037 38.917 50.9982 38.9053H50.4006V34.1064H50.6643C51.092 34.1064 51.3967 34.3232 51.5783 34.7568C51.6076 34.8271 51.634 34.9004 51.6574 34.9766L51.8859 35.7061H52.1408L52.1057 33.8691H47.6232L47.5793 35.7061H47.843L48.0715 34.9766C48.2121 34.5195 48.4377 34.2441 48.7482 34.1504C48.842 34.1211 48.9475 34.1064 49.0646 34.1064H49.3195V38.9053H48.4846V39.1426H51.2268ZM62.2869 35.5215L62.2518 33.8691H57.9627V34.1064H58.6658V38.9053H57.9627V39.1426H62.2518L62.2869 37.4902H62.0584L61.8826 38.0352C61.7303 38.4922 61.5018 38.7676 61.1971 38.8613C61.0975 38.8906 60.9891 38.9053 60.8719 38.9053H59.7469V36.5586H61.4783V36.2949H59.7469V34.1064H60.8719C61.323 34.1064 61.6424 34.3408 61.8299 34.8096C61.8533 34.8623 61.8738 34.918 61.8914 34.9766L62.0584 35.5215H62.2869ZM72.4945 39.1426L72.5297 37.2793H72.3012L72.0814 38.0352C71.9584 38.4453 71.7797 38.7061 71.5453 38.8174C71.4223 38.876 71.2787 38.9053 71.1146 38.9053H70.1127V34.1064H70.8598V33.8691H68.3285V34.1064H69.0316V38.9053H68.3285V39.1426H72.4945ZM82.4121 37.7012C82.4121 37.2031 82.1367 36.7842 81.5859 36.4443C81.5039 36.3975 81.1875 36.2393 80.6367 35.9697C80.1328 35.7178 79.8193 35.4717 79.6963 35.2314C79.6318 35.1025 79.5996 34.9707 79.5996 34.8359C79.5996 34.4844 79.7695 34.2441 80.1094 34.1152C80.2441 34.0625 80.3877 34.0361 80.54 34.0361C81.0205 34.0361 81.3838 34.209 81.6299 34.5547C81.7939 34.7891 81.876 35.0674 81.876 35.3896H82.1924V33.8164C82.0283 33.8164 81.9346 33.8721 81.9111 33.9834C81.9053 34.0244 81.9023 34.0713 81.9023 34.124C81.4395 33.8955 80.9414 33.7812 80.4082 33.7812C79.7285 33.7812 79.21 33.9629 78.8525 34.3262C78.6182 34.5664 78.501 34.8506 78.501 35.1787C78.501 35.6709 78.7764 36.084 79.3271 36.418C79.415 36.4648 79.7373 36.626 80.2939 36.9014C80.8096 37.1533 81.1289 37.4023 81.252 37.6484C81.3164 37.7715 81.3486 37.9004 81.3486 38.0352C81.3486 38.4453 81.1582 38.7266 80.7773 38.8789C80.625 38.9434 80.4551 38.9756 80.2676 38.9756C79.5703 38.9756 79.1104 38.6328 78.8877 37.9473C78.8291 37.7539 78.791 37.543 78.7734 37.3145H78.457V39.1602C78.6035 39.1602 78.6914 39.1162 78.7207 39.0283C78.7324 38.9756 78.7383 38.8936 78.7383 38.7822C79.1953 39.0811 79.7314 39.2305 80.3467 39.2305C81.0674 39.2305 81.6211 39.043 82.0078 38.668C82.2773 38.4043 82.4121 38.082 82.4121 37.7012Z" fill="white"/>
<path d="M13.0127 9.64746C13.0127 8.264 12.2965 7.30371 10.8643 6.7666C10.1156 6.48991 9.23665 6.35156 8.22754 6.35156H0.634766V7.01074H2.58789V20.3408H0.634766V21H8.54492C10.7259 21 12.3047 20.3408 13.2812 19.0225C13.7858 18.3389 14.0381 17.582 14.0381 16.752C14.0381 15.1243 13.2161 14.0094 11.5723 13.4072C11.1328 13.2445 10.6527 13.1224 10.1318 13.041C11.499 12.5853 12.3942 11.804 12.8174 10.6973C12.9476 10.3392 13.0127 9.98926 13.0127 9.64746ZM7.10449 7.01074C8.94368 7.04329 9.87142 7.9873 9.8877 9.84277C9.8877 11.1774 9.40755 12.0563 8.44727 12.4795C8.08919 12.6423 7.68229 12.7236 7.22656 12.7236H5.59082V7.01074H7.10449ZM7.78809 13.4072C9.15527 13.4072 10.0667 14.0176 10.5225 15.2383C10.6852 15.6615 10.7666 16.1335 10.7666 16.6543C10.7666 18.3307 10.2132 19.4538 9.10645 20.0234C8.66699 20.235 8.16243 20.3408 7.59277 20.3408H5.59082V13.4072H7.78809ZM31.2158 10.9414L31.1182 6.35156H19.2041V7.01074H21.1572V20.3408H19.2041V21H31.1182L31.2158 16.4102H30.5811L30.0928 17.9238C29.6696 19.1934 29.0348 19.9583 28.1885 20.2188C27.9118 20.3001 27.6107 20.3408 27.2852 20.3408H24.1602V13.8223H28.9697V13.0898H24.1602V7.01074H27.2852C28.5384 7.01074 29.4255 7.66178 29.9463 8.96387C30.0114 9.11035 30.0684 9.26497 30.1172 9.42773L30.5811 10.9414H31.2158ZM43.6572 21V20.3408H41.7041V14.3105H43.2666L46.9775 21.0244L51.0791 21C51.0791 20.6419 50.9733 20.4385 50.7617 20.3896C50.6641 20.3734 50.5664 20.3652 50.4688 20.3652H49.9561L46.123 14.042C47.7832 13.6025 48.8411 12.7236 49.2969 11.4053C49.4271 10.9984 49.4922 10.5915 49.4922 10.1846C49.4922 8.96387 48.9551 7.9873 47.8809 7.25488C46.9857 6.65267 45.8952 6.35156 44.6094 6.35156H36.748V7.01074H38.7012V20.3408H36.748V21H43.6572ZM43.3887 7.01074C44.707 7.01074 45.5941 7.62109 46.0498 8.8418C46.2126 9.28125 46.2939 9.75326 46.2939 10.2578C46.2939 11.5599 45.8789 12.512 45.0488 13.1143C44.6094 13.4235 44.1048 13.5781 43.5352 13.5781H41.7041V7.01074H43.3887ZM64.082 7.01074V6.35156H57.0264V7.01074H59.2236V16.5322C59.2236 18.7946 59.0039 20.1455 58.5645 20.585C58.3854 20.764 58.1576 20.8535 57.8809 20.8535C57.4414 20.8535 57.1647 20.585 57.0508 20.0479C57.0182 19.9665 56.9857 19.8444 56.9531 19.6816C56.8229 18.9818 56.6032 18.5342 56.2939 18.3389C56.0661 18.2087 55.7894 18.1436 55.4639 18.1436C54.8779 18.1436 54.4873 18.4121 54.292 18.9492C54.2432 19.112 54.2188 19.2666 54.2188 19.4131C54.2188 20.113 54.6419 20.6663 55.4883 21.0732C56.0579 21.3337 56.7497 21.4639 57.5635 21.4639C59.4352 21.4639 60.7617 20.764 61.543 19.3643C61.9824 18.5505 62.2021 17.5495 62.2021 16.3613V7.01074H64.082ZM83.8721 21C83.8721 20.6257 83.7581 20.4141 83.5303 20.3652C83.4652 20.349 83.3757 20.3408 83.2617 20.3408H82.5049L76.792 6.35156H75.2783L69.9072 20.3408H68.3447V21H72.7881C72.7881 20.6257 72.6742 20.4141 72.4463 20.3652C72.3649 20.349 72.2754 20.3408 72.1777 20.3408H70.8838L72.666 15.6533H77.5977L79.4287 20.3408H77.7441V21H83.8721ZM77.3047 14.9209H72.9346L75.1074 9.20801L77.3047 14.9209ZM98.2666 21C98.1689 20.5931 97.9492 20.3734 97.6074 20.3408H96.2158V14.7256L99.6582 7.69434C99.9674 7.25488 100.382 7.02702 100.903 7.01074C101.31 6.91309 101.53 6.69336 101.562 6.35156H97.2412V7.01074H99.1943L95.7764 13.8955L92.0898 7.01074H93.9453V6.35156H87.5488V7.01074H88.7695L93.2373 14.9209V20.3408H91.1865V21H98.2666ZM120.84 21C120.84 20.6257 120.726 20.4141 120.498 20.3652C120.433 20.349 120.343 20.3408 120.229 20.3408H119.473L113.76 6.35156H112.246L106.875 20.3408H105.312V21H109.756C109.756 20.6257 109.642 20.4141 109.414 20.3652C109.333 20.349 109.243 20.3408 109.146 20.3408H107.852L109.634 15.6533H114.565L116.396 20.3408H114.712V21H120.84ZM114.272 14.9209H109.902L112.075 9.20801L114.272 14.9209Z" fill="white"/>
</svg>
