<svg width="335" height="76" viewBox="0 0 335 76" fill="none" xmlns="http://www.w3.org/2000/svg">
<path d="M321.042 0.532532H13.9583C6.24936 0.532532 0 4.83435 0 10.1409V65.8696C0 71.1761 6.24936 75.478 13.9583 75.478H321.042C328.751 75.478 335 71.1761 335 65.8696V10.1409C335 4.83435 328.751 0.532532 321.042 0.532532Z" fill="#E0B973"/>
<path d="M91.225 45.671L87.85 40.796H87.65H84.125V45.671H80.075V28.171H87.65C89.2 28.171 90.5417 28.4293 91.675 28.946C92.825 29.4626 93.7083 30.196 94.325 31.146C94.9417 32.096 95.25 33.221 95.25 34.521C95.25 35.821 94.9333 36.946 94.3 37.896C93.6833 38.8293 92.8 39.546 91.65 40.046L95.575 45.671H91.225ZM91.15 34.521C91.15 33.5376 90.8333 32.7876 90.2 32.271C89.5667 31.7376 88.6417 31.471 87.425 31.471H84.125V37.571H87.425C88.6417 37.571 89.5667 37.3043 90.2 36.771C90.8333 36.2376 91.15 35.4876 91.15 34.521ZM112.009 42.421V45.671H98.4588V28.171H111.684V31.421H102.484V35.221H110.609V38.371H102.484V42.421H112.009ZM120.981 45.971C119.598 45.971 118.256 45.7876 116.956 45.421C115.673 45.0376 114.64 44.546 113.856 43.946L115.231 40.896C115.981 41.446 116.873 41.8876 117.906 42.221C118.94 42.5543 119.973 42.721 121.006 42.721C122.156 42.721 123.006 42.5543 123.556 42.221C124.106 41.871 124.381 41.4126 124.381 40.846C124.381 40.4293 124.215 40.0876 123.881 39.821C123.565 39.5376 123.148 39.3126 122.631 39.146C122.131 38.9793 121.448 38.796 120.581 38.596C119.248 38.2793 118.156 37.9626 117.306 37.646C116.456 37.3293 115.723 36.821 115.106 36.121C114.506 35.421 114.206 34.4876 114.206 33.321C114.206 32.3043 114.481 31.3876 115.031 30.571C115.581 29.7376 116.406 29.0793 117.506 28.596C118.623 28.1126 119.981 27.871 121.581 27.871C122.698 27.871 123.79 28.0043 124.856 28.271C125.923 28.5376 126.856 28.921 127.656 29.421L126.406 32.496C124.79 31.5793 123.173 31.121 121.556 31.121C120.423 31.121 119.581 31.3043 119.031 31.671C118.498 32.0376 118.231 32.521 118.231 33.121C118.231 33.721 118.54 34.171 119.156 34.471C119.79 34.7543 120.748 35.0376 122.031 35.321C123.365 35.6376 124.456 35.9543 125.306 36.271C126.156 36.5876 126.881 37.0876 127.481 37.771C128.098 38.4543 128.406 39.3793 128.406 40.546C128.406 41.546 128.123 42.4626 127.556 43.296C127.006 44.1126 126.173 44.7626 125.056 45.246C123.94 45.7293 122.581 45.971 120.981 45.971ZM144.724 42.421V45.671H131.174V28.171H144.399V31.421H135.199V35.221H143.324V38.371H135.199V42.421H144.724ZM159.096 45.671L155.721 40.796H155.521H151.996V45.671H147.946V28.171H155.521C157.071 28.171 158.413 28.4293 159.546 28.946C160.696 29.4626 161.579 30.196 162.196 31.146C162.813 32.096 163.121 33.221 163.121 34.521C163.121 35.821 162.804 36.946 162.171 37.896C161.554 38.8293 160.671 39.546 159.521 40.046L163.446 45.671H159.096ZM159.021 34.521C159.021 33.5376 158.704 32.7876 158.071 32.271C157.438 31.7376 156.513 31.471 155.296 31.471H151.996V37.571H155.296C156.513 37.571 157.438 37.3043 158.071 36.771C158.704 36.2376 159.021 35.4876 159.021 34.521ZM183.155 28.171L175.58 45.671H171.58L164.03 28.171H168.405L173.73 40.671L179.13 28.171H183.155ZM198.166 42.421V45.671H184.616V28.171H197.841V31.421H188.641V35.221H196.766V38.371H188.641V42.421H198.166ZM219.994 41.921H211.869L210.319 45.671H206.169L213.969 28.171H217.969L225.794 45.671H221.544L219.994 41.921ZM218.719 38.846L215.944 32.146L213.169 38.846H218.719ZM243.659 28.171V45.671H239.609V38.496H231.659V45.671H227.609V28.171H231.659V35.071H239.609V28.171H243.659ZM256.275 45.971C254.458 45.971 252.816 45.5793 251.35 44.796C249.9 44.0126 248.758 42.9376 247.925 41.571C247.108 40.1876 246.7 38.6376 246.7 36.921C246.7 35.2043 247.108 33.6626 247.925 32.296C248.758 30.9126 249.9 29.8293 251.35 29.046C252.816 28.2626 254.458 27.871 256.275 27.871C258.091 27.871 259.725 28.2626 261.175 29.046C262.625 29.8293 263.766 30.9126 264.6 32.296C265.433 33.6626 265.85 35.2043 265.85 36.921C265.85 38.6376 265.433 40.1876 264.6 41.571C263.766 42.9376 262.625 44.0126 261.175 44.796C259.725 45.5793 258.091 45.971 256.275 45.971ZM256.275 42.521C257.308 42.521 258.241 42.2876 259.075 41.821C259.908 41.3376 260.558 40.671 261.025 39.821C261.508 38.971 261.75 38.0043 261.75 36.921C261.75 35.8376 261.508 34.871 261.025 34.021C260.558 33.171 259.908 32.5126 259.075 32.046C258.241 31.5626 257.308 31.321 256.275 31.321C255.241 31.321 254.308 31.5626 253.475 32.046C252.641 32.5126 251.983 33.171 251.5 34.021C251.033 34.871 250.8 35.8376 250.8 36.921C250.8 38.0043 251.033 38.971 251.5 39.821C251.983 40.671 252.641 41.3376 253.475 41.821C254.308 42.2876 255.241 42.521 256.275 42.521ZM280.043 45.671L276.668 40.796H276.468H272.943V45.671H268.893V28.171H276.468C278.018 28.171 279.36 28.4293 280.493 28.946C281.643 29.4626 282.527 30.196 283.143 31.146C283.76 32.096 284.068 33.221 284.068 34.521C284.068 35.821 283.752 36.946 283.118 37.896C282.502 38.8293 281.618 39.546 280.468 40.046L284.393 45.671H280.043ZM279.968 34.521C279.968 33.5376 279.652 32.7876 279.018 32.271C278.385 31.7376 277.46 31.471 276.243 31.471H272.943V37.571H276.243C277.46 37.571 278.385 37.3043 279.018 36.771C279.652 36.2376 279.968 35.4876 279.968 34.521ZM298.802 41.921H290.677L289.127 45.671H284.977L292.777 28.171H296.777L304.602 45.671H300.352L298.802 41.921ZM297.527 38.846L294.752 32.146L291.977 38.846H297.527Z" fill="white"/>
<path d="M44.8333 22.6318H47.1667V24.8737H44.8333V22.6318Z" fill="white"/>
<path d="M51.8334 22.6318H54.1667V24.8737H51.8334V22.6318Z" fill="white"/>
<path d="M37.8333 22.6318H40.1667V24.8737H37.8333V22.6318Z" fill="white"/>
<path d="M58.8333 24.8738H54.1667V28.2367H51.8333V24.8738H47.1667V28.2367H44.8333V24.8738H40.1667V28.2367H37.8333V24.8738H33.1667C32.8572 24.8738 32.5605 24.9919 32.3417 25.2021C32.1229 25.4123 32 25.6975 32 25.9948V46.1724C32 46.4697 32.1229 46.7548 32.3417 46.965C32.5605 47.1752 32.8572 47.2933 33.1667 47.2933H58.8333C59.1428 47.2933 59.4395 47.1752 59.6583 46.965C59.8771 46.7548 60 46.4697 60 46.1724V25.9948C60 25.6975 59.8771 25.4123 59.6583 25.2021C59.4395 24.9919 59.1428 24.8738 58.8333 24.8738ZM53.4887 39.2377L51.8333 38.1013V42.8094C51.8333 43.1067 51.7104 43.3919 51.4916 43.6021C51.2728 43.8123 50.9761 43.9304 50.6667 43.9304H47.75V39.4465C47.75 39.1492 47.6271 38.8641 47.4083 38.6538C47.1895 38.4436 46.8928 38.3255 46.5833 38.3255H45.4167C45.1072 38.3255 44.8105 38.4436 44.5917 38.6538C44.3729 38.8641 44.25 39.1492 44.25 39.4465V43.9304H41.3333C41.0239 43.9304 40.7272 43.8123 40.5084 43.6021C40.2896 43.3919 40.1667 43.1067 40.1667 42.8094V38.1013L38.5115 39.2377L37.1552 37.4133L45.3219 31.8084C45.5206 31.6746 45.7573 31.6028 46 31.6028C46.2427 31.6028 46.4794 31.6746 46.6781 31.8084L54.8448 37.4133L53.4887 39.2377Z" fill="white"/>
</svg>
