<svg width="284" height="142" viewBox="0 0 284 142" fill="none" xmlns="http://www.w3.org/2000/svg">
<path d="M0 0H284V93.8462C284 106.417 278.156 118.472 267.754 127.361C257.351 136.25 243.242 141.243 228.531 141.243H55.4688C40.7575 141.243 26.6488 136.25 16.2464 127.361C5.84401 118.472 0 106.417 0 93.8462L0 0Z" fill="#E0B973"/>
<path d="M93.2764 94.5229C93.2178 94.2788 93.0859 94.147 92.8809 94.1274H92.1045V90.2163H96.0742V94.1274H94.9023V94.5229H99.0332C98.9551 94.2788 98.8281 94.147 98.6523 94.1274H97.876V86.1294H99.0332V85.7339H94.9023V86.1294H96.0742V89.7769H92.1045V86.1294H93.2764V85.7339H89.1309V86.1294H90.3027V94.1274H89.1309V94.5229H93.2764ZM113.629 85.5874C112.369 85.5874 111.3 85.9878 110.421 86.7886C109.493 87.6382 109.029 88.7368 109.029 90.0845C109.029 91.6372 109.581 92.8433 110.685 93.7026C111.515 94.3472 112.481 94.6694 113.585 94.6694C114.835 94.6694 115.895 94.2642 116.764 93.4536C117.682 92.5942 118.141 91.4907 118.141 90.1431C118.141 88.5415 117.574 87.3208 116.441 86.481C115.641 85.8853 114.703 85.5874 113.629 85.5874ZM113.629 94.2446C112.418 94.2446 111.642 93.605 111.3 92.3257C111.144 91.73 111.065 91.0024 111.065 90.1431C111.065 87.5356 111.812 86.1636 113.307 86.0269C113.404 86.0171 113.497 86.0122 113.585 86.0122C114.894 86.0122 115.689 86.8081 115.973 88.3999C116.061 88.8882 116.104 89.4497 116.104 90.0845C116.104 92.4868 115.499 93.8491 114.288 94.1714C114.083 94.2202 113.863 94.2446 113.629 94.2446ZM134.128 94.5229C134.05 94.2788 133.923 94.147 133.747 94.1274H132.751V86.1294H133.19C133.903 86.1294 134.411 86.4907 134.714 87.2134C134.763 87.3306 134.807 87.4526 134.846 87.5796L135.227 88.7954H135.651L135.593 85.7339H128.122L128.049 88.7954H128.488L128.869 87.5796C129.104 86.8179 129.479 86.3589 129.997 86.2026C130.153 86.1538 130.329 86.1294 130.524 86.1294H130.949V94.1274H129.558V94.5229H134.128ZM152.562 88.4878L152.503 85.7339H145.354V86.1294H146.526V94.1274H145.354V94.5229H152.503L152.562 91.769H152.181L151.888 92.6772C151.634 93.439 151.253 93.8979 150.745 94.0542C150.579 94.103 150.398 94.1274 150.203 94.1274H148.328V90.2163H151.214V89.7769H148.328V86.1294H150.203C150.955 86.1294 151.487 86.52 151.8 87.3013C151.839 87.3892 151.873 87.4819 151.902 87.5796L152.181 88.4878H152.562ZM169.574 94.5229L169.633 91.4175H169.252L168.886 92.6772C168.681 93.3608 168.383 93.7954 167.992 93.981C167.787 94.0786 167.548 94.1274 167.274 94.1274H165.604V86.1294H166.85V85.7339H162.631V86.1294H163.803V94.1274H162.631V94.5229H169.574ZM186.104 92.1206C186.104 91.2905 185.645 90.5923 184.727 90.0259C184.59 89.9478 184.062 89.6841 183.145 89.2349C182.305 88.8149 181.782 88.4048 181.577 88.0044C181.47 87.7896 181.416 87.5698 181.416 87.3452C181.416 86.7593 181.699 86.3589 182.266 86.144C182.49 86.0562 182.729 86.0122 182.983 86.0122C183.784 86.0122 184.39 86.3003 184.8 86.8765C185.073 87.2671 185.21 87.731 185.21 88.2681H185.737V85.646C185.464 85.646 185.308 85.7388 185.269 85.9243C185.259 85.9927 185.254 86.0708 185.254 86.1587C184.482 85.7778 183.652 85.5874 182.764 85.5874C181.631 85.5874 180.767 85.8901 180.171 86.4956C179.78 86.896 179.585 87.3696 179.585 87.9165C179.585 88.7368 180.044 89.4253 180.962 89.9819C181.108 90.0601 181.646 90.3286 182.573 90.7876C183.433 91.2075 183.965 91.6226 184.17 92.0327C184.277 92.2378 184.331 92.4526 184.331 92.6772C184.331 93.3608 184.014 93.8296 183.379 94.0835C183.125 94.1909 182.842 94.2446 182.529 94.2446C181.367 94.2446 180.601 93.6733 180.229 92.5308C180.132 92.2085 180.068 91.8569 180.039 91.4761H179.512V94.5522C179.756 94.5522 179.902 94.479 179.951 94.3325C179.971 94.2446 179.98 94.1079 179.98 93.9224C180.742 94.4204 181.636 94.6694 182.661 94.6694C183.862 94.6694 184.785 94.3569 185.43 93.7319C185.879 93.2925 186.104 92.7554 186.104 92.1206Z" fill="#14274A"/>
<path d="M66.3047 57.5453C66.3047 55.3318 65.1589 53.7953 62.8672 52.936C61.6693 52.4933 60.263 52.2719 58.6484 52.2719H46.5V53.3266H49.625V74.6547H46.5V75.7094H59.1562C62.6458 75.7094 65.1719 74.6547 66.7344 72.5453C67.5417 71.4516 67.9453 70.2407 67.9453 68.9125C67.9453 66.3084 66.6302 64.5245 64 63.561C63.2969 63.3006 62.5286 63.1052 61.6953 62.975C63.8828 62.2459 65.3151 60.9959 65.9922 59.225C66.2005 58.6521 66.3047 58.0922 66.3047 57.5453ZM56.8516 53.3266C59.7943 53.3787 61.2786 54.8891 61.3047 57.8578C61.3047 59.9933 60.5365 61.3995 59 62.0766C58.4271 62.337 57.776 62.4672 57.0469 62.4672H54.4297V53.3266H56.8516ZM57.9453 63.561C60.1328 63.561 61.5911 64.5375 62.3203 66.4907C62.5807 67.1677 62.7109 67.923 62.7109 68.7563C62.7109 71.4386 61.8255 73.2355 60.0547 74.1469C59.3516 74.4855 58.5443 74.6547 57.6328 74.6547H54.4297V63.561H57.9453ZM95.4297 59.6157L95.2734 52.2719H76.2109V53.3266H79.3359V74.6547H76.2109V75.7094H95.2734L95.4297 68.3657H94.4141L93.6328 70.7875C92.9557 72.8188 91.9401 74.0427 90.5859 74.4594C90.1432 74.5896 89.6615 74.6547 89.1406 74.6547H84.1406V64.225H91.8359V63.0532H84.1406V53.3266H89.1406C91.1458 53.3266 92.5651 54.3683 93.3984 56.4516C93.5026 56.686 93.5938 56.9334 93.6719 57.1938L94.4141 59.6157H95.4297ZM115.336 75.7094V74.6547H112.211V65.0063H114.711L120.648 75.7485L127.211 75.7094C127.211 75.1365 127.042 74.811 126.703 74.7328C126.547 74.7068 126.391 74.6938 126.234 74.6938H125.414L119.281 64.5766C121.938 63.8735 123.63 62.4672 124.359 60.3578C124.568 59.7068 124.672 59.0558 124.672 58.4047C124.672 56.4516 123.812 54.8891 122.094 53.7172C120.661 52.7537 118.917 52.2719 116.859 52.2719H104.281V53.3266H107.406V74.6547H104.281V75.7094H115.336ZM114.906 53.3266C117.016 53.3266 118.435 54.3032 119.164 56.2563C119.424 56.9594 119.555 57.7146 119.555 58.5219C119.555 60.6052 118.891 62.1287 117.562 63.0922C116.859 63.587 116.052 63.8344 115.141 63.8344H112.211V53.3266H114.906ZM148.016 53.3266V52.2719H136.727V53.3266H140.242V68.561C140.242 72.1808 139.891 74.3422 139.188 75.0453C138.901 75.3318 138.536 75.475 138.094 75.475C137.391 75.475 136.948 75.0453 136.766 74.186C136.714 74.0558 136.661 73.8605 136.609 73.6C136.401 72.4802 136.049 71.7641 135.555 71.4516C135.19 71.2433 134.747 71.1391 134.227 71.1391C133.289 71.1391 132.664 71.5688 132.352 72.4282C132.273 72.6886 132.234 72.936 132.234 73.1703C132.234 74.2901 132.911 75.1756 134.266 75.8266C135.177 76.2433 136.284 76.4516 137.586 76.4516C140.581 76.4516 142.703 75.3318 143.953 73.0922C144.656 71.7901 145.008 70.1886 145.008 68.2875V53.3266H148.016ZM179.68 75.7094C179.68 75.1105 179.497 74.7719 179.133 74.6938C179.029 74.6677 178.885 74.6547 178.703 74.6547H177.492L168.352 52.2719H165.93L157.336 74.6547H154.836V75.7094H161.945C161.945 75.1105 161.763 74.7719 161.398 74.6938C161.268 74.6677 161.125 74.6547 160.969 74.6547H158.898L161.75 67.1547H169.641L172.57 74.6547H169.875V75.7094H179.68ZM169.172 65.9828H162.18L165.656 56.8422L169.172 65.9828ZM202.711 75.7094C202.555 75.0584 202.203 74.7068 201.656 74.6547H199.43V65.6703L204.938 54.4203C205.432 53.7172 206.096 53.3526 206.93 53.3266C207.581 53.1703 207.932 52.8188 207.984 52.2719H201.07V53.3266H204.195L198.727 64.3422L192.828 53.3266H195.797V52.2719H185.562V53.3266H187.516L194.664 65.9828V74.6547H191.383V75.7094H202.711ZM238.828 75.7094C238.828 75.1105 238.646 74.7719 238.281 74.6938C238.177 74.6677 238.034 74.6547 237.852 74.6547H236.641L227.5 52.2719H225.078L216.484 74.6547H213.984V75.7094H221.094C221.094 75.1105 220.911 74.7719 220.547 74.6938C220.417 74.6677 220.273 74.6547 220.117 74.6547H218.047L220.898 67.1547H228.789L231.719 74.6547H229.023V75.7094H238.828ZM228.32 65.9828H221.328L224.805 56.8422L228.32 65.9828Z" fill="#14274A"/>
</svg>
